<svg width="100" height="100" viewBox="0 0 100 100" fill="none" xmlns="http://www.w3.org/2000/svg">
<g clip-path="url(#clip0_1_2)">
<rect width="100" height="100" fill="white"/>
<path d="M46.608 18.456C52.816 18.456 57.936 19.224 61.968 20.76C66 22.232 69.008 24.504 70.992 27.576C72.976 30.584 73.968 34.392 73.968 39C73.968 42.136 73.36 44.888 72.144 47.256C70.992 49.56 69.424 51.544 67.44 53.208C65.52 54.808 63.44 56.12 61.2 57.144L81.36 87H65.232L48.912 60.696H41.136V87H26.64V18.456H46.608ZM45.552 30.36H41.136V48.888H45.84C49.04 48.888 51.632 48.536 53.616 47.832C55.6 47.128 57.04 46.072 57.936 44.664C58.832 43.192 59.28 41.432 59.28 39.384C59.28 37.208 58.768 35.48 57.744 34.2C56.784 32.856 55.28 31.896 53.232 31.32C51.248 30.68 48.688 30.36 45.552 30.36Z" fill="black"/>
</g>
<defs>
<clipPath id="clip0_1_2">
<rect width="100" height="100" fill="white"/>
</clipPath>
</defs>
</svg>
